<svg width="502" height="480" viewBox="0 0 502 480" fill="none" xmlns="http://www.w3.org/2000/svg">
<g clip-path="url(#clip0_2_343)">
<path d="M394.68 95.821H80.3196V408.804H394.68V95.821Z" fill="#AAE0FF"/>
<path d="M122.575 451.815C107.049 451.815 94.4606 439.235 94.4606 423.716V385.409H150.687V423.716C150.689 439.235 138.103 451.815 122.575 451.815Z" fill="#5896FA"/>
<path d="M94.4629 414.362H91.3469V473.818H94.4629V414.362Z" fill="#0E0E0E"/>
<path d="M153.805 414.362H150.689V473.818H153.805V414.362Z" fill="#0E0E0E"/>
<path d="M129.96 414.362H126.844V473.818H129.96V414.362Z" fill="#0E0E0E"/>
<path d="M150.834 451.815H91.3469V454.93H150.834V451.815Z" fill="#0E0E0E"/>
<path d="M166.36 322.129C169.753 327.013 162.924 331.222 161.859 337.993C160.795 344.764 168.554 348.573 160.325 357.437C155.258 362.897 150.977 355.645 146.858 364.013C142.739 372.38 145.984 373.791 141.355 376.801C133.282 382.05 120.932 370.45 125.085 362.091C129.238 353.733 137.642 354.481 133.754 347.604C129.867 340.727 128.421 337.764 135.125 334.23C143.422 329.857 150.732 333.874 151.402 327.475C152.067 321.077 161.871 315.669 166.36 322.129Z" fill="#FFCA59"/>
<path d="M130.892 385.028L129.497 384.752C136.037 351.705 157.724 328.566 157.942 328.335L158.975 329.315C158.759 329.544 137.351 352.399 130.892 385.028Z" fill="#0E0E0E"/>
<path d="M57.6249 309.919C54.1163 317.064 64.0021 321.262 66.7708 330.009C69.5396 338.755 59.3429 341.845 72.0156 351.923C79.8226 358.129 81.4543 354.25 84.3252 368.134C86.8511 380.358 96.1446 368.726 103.094 375.901C112.06 385.158 126.072 364.841 118.894 354.615C111.715 344.39 103.339 347.035 107.099 337.152C110.86 327.271 106.375 319.824 96.7937 316.497C84.9334 312.375 80.6691 322.324 78.4972 313.99C76.3276 305.657 62.2637 300.469 57.6249 309.919Z" fill="#ED5A24"/>
<path d="M117.214 386.029C102.093 344.124 69.172 318.205 68.8429 317.946L70.0117 316.442C70.3476 316.703 103.7 342.965 119.007 385.382L117.214 386.029Z" fill="#0E0E0E"/>
<path d="M158.417 270.027C224.823 270.027 278.655 216.222 278.655 149.851C278.655 83.4802 224.823 29.6758 158.417 29.6758C92.0105 29.6758 38.1777 83.4802 38.1777 149.851C38.1777 216.222 92.0105 270.027 158.417 270.027Z" stroke="#2E77E6" stroke-width="3" stroke-miterlimit="9.99856" stroke-linecap="square" stroke-dasharray="6 6"/>
<path d="M188.859 141.964C188.986 141.028 189.075 140.077 189.075 139.104C189.075 127.407 179.588 117.925 167.885 117.925C159.104 117.925 151.572 123.263 148.358 130.866C145.742 128.536 142.303 127.11 138.525 127.11C130.345 127.11 123.716 133.735 123.716 141.91H120.952C113.088 141.91 106.654 148.341 106.654 156.2C106.654 164.06 113.088 170.49 120.952 170.49H187.804C195.668 170.49 202.102 164.06 202.102 156.2C202.102 148.697 196.235 142.509 188.859 141.964Z" fill="#E8F6FF"/>
<path d="M202.009 297.414H112.503C109.491 297.414 107.049 294.973 107.049 291.963V216.911C107.049 213.901 109.491 211.46 112.503 211.46H202.009C205.02 211.46 207.462 213.901 207.462 216.911V291.961C207.464 294.971 205.022 297.414 202.009 297.414Z" fill="#5896FA"/>
<path d="M187.656 263.358H127.123C125.142 263.358 123.521 261.738 123.521 259.758C123.521 257.778 125.142 256.159 127.123 256.159H187.656C189.638 256.159 191.258 257.778 191.258 259.758C191.258 261.738 189.638 263.358 187.656 263.358Z" fill="#E8F6FF"/>
<path d="M187.656 274.951H127.123C125.142 274.951 123.521 273.332 123.521 271.351C123.521 269.371 125.142 267.752 127.123 267.752H187.656C189.638 267.752 191.258 269.371 191.258 271.351C191.258 273.332 189.638 274.951 187.656 274.951Z" fill="#E8F6FF"/>
<path d="M138.427 271.671C138.427 272.372 137.86 272.939 137.158 272.939C136.457 272.939 135.89 272.372 135.89 271.671C135.89 270.97 136.457 270.403 137.158 270.403C137.86 270.403 138.427 270.973 138.427 271.671Z" fill="#80B2FF"/>
<path d="M142.773 271.671C142.773 272.372 142.206 272.939 141.504 272.939C140.803 272.939 140.236 272.372 140.236 271.671C140.236 270.97 140.803 270.403 141.504 270.403C142.206 270.403 142.773 270.973 142.773 271.671Z" fill="#80B2FF"/>
<path d="M147.121 271.671C147.121 272.372 146.554 272.939 145.853 272.939C145.151 272.939 144.584 272.372 144.584 271.671C144.584 270.97 145.151 270.403 145.853 270.403C146.554 270.403 147.121 270.973 147.121 271.671Z" fill="#80B2FF"/>
<path d="M151.47 271.671C151.47 272.372 150.902 272.939 150.201 272.939C149.5 272.939 148.932 272.372 148.932 271.671C148.932 270.97 149.5 270.403 150.201 270.403C150.9 270.403 151.47 270.973 151.47 271.671Z" fill="#80B2FF"/>
<path d="M155.816 271.671C155.816 272.372 155.248 272.939 154.547 272.939C153.846 272.939 153.278 272.372 153.278 271.671C153.278 270.97 153.846 270.403 154.547 270.403C155.248 270.403 155.816 270.973 155.816 271.671Z" fill="#80B2FF"/>
<path d="M160.164 271.671C160.164 272.372 159.597 272.939 158.895 272.939C158.194 272.939 157.627 272.372 157.627 271.671C157.627 270.97 158.194 270.403 158.895 270.403C159.597 270.403 160.164 270.973 160.164 271.671Z" fill="#80B2FF"/>
<path d="M164.51 271.671C164.51 272.372 163.943 272.939 163.241 272.939C162.54 272.939 161.973 272.372 161.973 271.671C161.973 270.97 162.54 270.403 163.241 270.403C163.943 270.403 164.51 270.973 164.51 271.671Z" fill="#80B2FF"/>
<path d="M168.858 271.671C168.858 272.372 168.291 272.939 167.59 272.939C166.888 272.939 166.321 272.372 166.321 271.671C166.321 270.97 166.888 270.403 167.59 270.403C168.291 270.403 168.858 270.973 168.858 271.671Z" fill="#80B2FF"/>
<path d="M173.207 271.671C173.207 272.372 172.639 272.939 171.938 272.939C171.237 272.939 170.669 272.372 170.669 271.671C170.669 270.97 171.237 270.403 171.938 270.403C172.639 270.403 173.207 270.973 173.207 271.671Z" fill="#80B2FF"/>
<path d="M157.411 246.085C165.096 246.085 171.325 239.859 171.325 232.178C171.325 224.498 165.096 218.272 157.411 218.272C149.727 218.272 143.497 224.498 143.497 232.178C143.497 239.859 149.727 246.085 157.411 246.085Z" fill="#E8F6FF"/>
<path d="M157.429 231.618C158.786 231.618 160.041 230.956 160.843 229.946C161.435 229.216 161.782 228.275 161.782 227.231C161.782 224.829 159.83 222.844 157.427 222.844C154.99 222.844 153.038 224.829 153.038 227.231C153.038 228.277 153.385 229.216 153.977 229.946C154.783 230.958 156.036 231.618 157.429 231.618Z" fill="#005CEA"/>
<path d="M165.143 239.437C165.143 242.206 149.675 242.206 149.675 239.437L149.679 236.211C150.29 231.802 163.886 231.616 165.146 236.211L165.143 239.437Z" fill="#005CEA"/>
<path d="M130.125 270.689V270.496C130.125 269.716 129.49 269.081 128.709 269.081C127.929 269.081 127.293 269.716 127.293 270.496V270.689H127.077V273.241C127.077 273.681 130.35 273.681 130.35 273.241V270.689H130.125ZM127.797 270.496C127.797 270.006 128.099 269.562 128.709 269.562C129.317 269.562 129.631 269.979 129.631 270.496V270.689H127.797V270.496ZM128.95 271.975V272.712C128.95 272.844 128.836 272.939 128.705 272.939C128.573 272.939 128.478 272.844 128.478 272.712V271.975C128.346 271.9 128.251 271.766 128.251 271.596C128.251 271.351 128.46 271.143 128.705 271.143C128.95 271.143 129.159 271.351 129.159 271.596C129.156 271.766 129.063 271.898 128.95 271.975Z" fill="#5896FA"/>
<path d="M128.711 259.497C128.997 259.497 129.263 259.357 129.431 259.146C129.556 258.992 129.628 258.794 129.628 258.572C129.628 258.066 129.218 257.646 128.709 257.646C128.194 257.646 127.783 258.066 127.783 258.572C127.783 258.792 127.856 258.992 127.981 259.146C128.153 259.357 128.416 259.497 128.711 259.497Z" fill="#5896FA"/>
<path d="M130.339 261.146C130.339 261.732 127.057 261.732 127.057 261.146L127.075 260.466C127.205 259.536 130.073 259.495 130.339 260.466V261.146Z" fill="#5896FA"/>
<path d="M149.915 260.815H136.65C136.069 260.815 135.592 260.339 135.592 259.758C135.592 259.178 136.069 258.701 136.65 258.701H149.915C150.496 258.701 150.973 259.178 150.973 259.758C150.973 260.339 150.496 260.815 149.915 260.815Z" fill="#80B2FF"/>
<path d="M167.41 260.815H154.145C153.564 260.815 153.088 260.339 153.088 259.758C153.088 259.178 153.564 258.701 154.145 258.701H167.41C167.991 258.701 168.468 259.178 168.468 259.758C168.468 260.339 167.994 260.815 167.41 260.815Z" fill="#80B2FF"/>
<path d="M161.828 286.186H149.806C148.102 286.186 146.72 284.805 146.72 283.101C146.72 281.398 148.102 280.016 149.806 280.016H161.828C163.532 280.016 164.914 281.398 164.914 283.101C164.912 284.805 163.532 286.186 161.828 286.186Z" fill="#1251B3"/>
<path d="M34.1903 144.643C27.2957 152.027 16.291 158.076 4.51697 160.655C4.51243 161.442 4.49428 165.795 4.4035 185.867C4.28322 212.642 29.7785 225.725 33.7364 227.732C37.5718 225.968 63.387 212.905 63.5073 186.13C63.5981 166.06 63.6163 161.705 63.6208 160.918C51.8695 158.237 41.0191 152.088 34.1903 144.643Z" fill="#E8F6FF"/>
<path d="M34.12 149.484C27.3683 155.674 18.0135 160.542 7.72603 163.193L7.62391 185.878C7.57852 196.258 11.7021 205.649 19.8881 213.789C25.2645 219.138 30.92 222.456 33.7886 223.947C33.9112 223.883 34.0474 223.813 34.1813 223.745V149.536C34.1586 149.518 34.1381 149.502 34.12 149.484Z" fill="#296ACC"/>
<path d="M34.179 149.536V223.743C37.161 222.191 42.5851 218.986 47.7776 213.912C56.034 205.846 60.2438 196.492 60.2892 186.112L60.3913 163.427C50.156 160.691 40.8694 155.762 34.179 149.536Z" fill="#2E77E6"/>
<path d="M22.2256 182.233V199.808C22.2256 201.765 46.1323 201.765 46.1323 199.808V182.233H22.2256ZM35.3863 191.565V196.546C35.3863 197.208 34.8462 197.759 34.1835 197.759C33.5095 197.759 32.9693 197.208 32.9693 196.546V191.553C31.9458 191.093 31.2264 190.059 31.2264 188.866C31.2264 187.235 32.554 185.919 34.1858 185.919C35.8175 185.919 37.1338 187.235 37.1338 188.866C37.1315 190.07 36.4212 191.104 35.3863 191.565Z" fill="#E8F6FF"/>
<path d="M44.0375 180.981H41.6183V179.797C41.6183 175.696 38.2799 172.362 34.179 172.362C30.0758 172.362 26.7396 175.698 26.7396 179.797V180.981H24.3181V179.797C24.3181 174.362 28.7413 169.941 34.179 169.941C39.6143 169.941 44.0375 174.362 44.0375 179.797V180.981Z" fill="#E8F6FF"/>
<path d="M211.134 0H167.951V53.8738H211.134V0Z" fill="#296ACC"/>
<path d="M216.735 5.56181H173.552V59.4356H216.735V5.56181Z" fill="#E8F6FF" stroke="#5896FA" stroke-width="6.3406" stroke-miterlimit="10"/>
<path d="M223.845 11.0261H180.662V64.8999H223.845V11.0261Z" fill="#E8F6FF" stroke="#5896FA" stroke-width="6.3406" stroke-miterlimit="10"/>
<path d="M229.02 16.5879H185.836V70.4617H229.02V16.5879Z" fill="#5896FA"/>
<path d="M222.3 25.4319H199.964V28.9364H222.3V25.4319Z" fill="#005CEA"/>
<path d="M222.302 33.6657H193.36V37.1702H222.302V33.6657Z" fill="#005CEA"/>
<path d="M222.302 41.8973H193.36V45.4018H222.302V41.8973Z" fill="#005CEA"/>
<path d="M222.302 50.1289H193.36V53.6333H222.302V50.1289Z" fill="#005CEA"/>
<path d="M222.302 58.3604H193.36V61.8649H222.302V58.3604Z" fill="#005CEA"/>
<path d="M88.077 62.0443C89.9578 53.839 84.8272 45.6633 76.6175 43.7835C68.4078 41.9036 60.2278 47.0315 58.347 55.2369C56.4662 63.4423 61.5967 71.618 69.8065 73.4978C78.0162 75.3776 86.1962 70.2497 88.077 62.0443Z" fill="#E8F6FF"/>
<path d="M97.2794 73.136C99.2561 69.8583 100.493 66.3153 101.017 62.7405L102.154 62.906L104.399 63.235L104.428 63.2372C105.034 59.1475 104.828 55.0102 103.838 51.0589L100.5 51.8845C99.6033 48.3097 98.026 44.9005 95.7793 41.8996L98.5457 39.8445C96.1787 36.6326 93.1399 33.8245 89.5132 31.6402L87.7317 34.5934C84.441 32.6087 80.9074 31.3816 77.3307 30.8576L77.83 27.4507C73.7382 26.845 69.5918 27.0628 65.6452 28.0404L66.4713 31.377C62.8924 32.2707 59.4836 33.8495 56.4811 36.095L54.425 33.33C51.2114 35.6958 48.4018 38.7331 46.2163 42.3578L49.1711 44.1383C47.1876 47.4273 45.9576 50.959 45.4333 54.5338L43.0209 54.18L42.0359 54.0439L42.0246 54.0371C41.4186 58.1268 41.6365 62.2709 42.6146 66.2155L45.953 65.3898C46.8495 68.9646 48.4358 72.3784 50.6849 75.3816L47.9184 77.4366C50.2854 80.6485 53.3129 83.4498 56.9395 85.6342L58.7211 82.6809C62.0118 84.6633 65.5567 85.8995 69.1334 86.4235L68.7408 89.0706L68.6341 89.8305C72.726 90.4361 76.861 90.2115 80.8076 89.2339L79.9769 85.8973C83.5536 85.0013 86.9692 83.4158 89.9853 81.1747L92.0414 83.9398C95.2437 81.5671 98.0465 78.5413 100.232 74.9166L97.2794 73.136ZM65.3457 71.6933C58.1265 67.3428 55.8048 57.9794 60.1599 50.764C64.506 43.5599 73.8743 41.2418 81.0935 45.5923C88.3014 49.9383 90.623 59.2995 86.2747 66.5035C81.9219 73.7189 72.5535 76.0371 65.3457 71.6933Z" fill="#005CEA"/>
<path d="M40.1976 71.1127C39.0856 69.4319 37.6785 68.0437 36.0967 66.9867L36.4326 66.4831L37.0975 65.4919L37.1043 65.4783C35.2956 64.267 33.2803 63.43 31.1765 63.0058L30.8156 64.7796C28.9115 64.3963 26.9348 64.3782 24.9967 64.7683L24.6449 62.99C22.582 63.3892 20.5599 64.199 18.7012 65.4284L19.7043 66.9436C18.0158 68.0596 16.6337 69.4614 15.5761 71.0423L14.0669 70.0352C12.855 71.843 12.0199 73.8641 11.5932 75.96L13.3679 76.3206C12.9844 78.2237 12.9662 80.1994 13.3566 82.1365L11.5773 82.4881C11.9768 84.5499 12.787 86.571 14.017 88.4287L15.533 87.4261C16.6496 89.1137 18.0521 90.4951 19.634 91.5521L18.9191 92.6182L18.6308 93.0559L18.624 93.0605C20.4328 94.2717 22.4549 95.1065 24.5519 95.5329L24.9127 93.7591C26.8168 94.1425 28.8003 94.1583 30.7362 93.7682L31.088 95.5465C33.1509 95.1473 35.1685 94.3421 37.0272 93.1104L36.0241 91.5952C37.7126 90.4792 39.0992 89.0751 40.1568 87.4919L41.3278 88.2767L41.666 88.499C42.8779 86.6912 43.7062 84.6747 44.1329 82.5788L42.3582 82.2181C42.7417 80.3151 42.7576 78.3326 42.3718 76.3932L44.151 76.0416C43.7448 73.9843 42.9391 71.9678 41.7091 70.1101L40.1976 71.1127ZM32.2953 85.9653C28.5938 88.4128 23.6146 87.4011 21.1658 83.7016C18.7194 80.0066 19.7338 75.0322 23.4353 72.5825C27.1323 70.1373 32.1092 71.1512 34.5557 74.8462C37.0067 78.5435 35.9923 83.5201 32.2953 85.9653Z" fill="#1251B3"/>
<path d="M289.642 102.091H252.563C251.783 102.091 251.149 101.458 251.149 100.677V79.6505C251.149 78.8702 251.783 78.2373 252.563 78.2373H289.642C290.423 78.2373 291.056 78.8702 291.056 79.6505V100.677C291.056 101.458 290.423 102.091 289.642 102.091Z" fill="#005CEA"/>
<path d="M291.054 82.7421H251.149V86.859H291.054V82.7421Z" fill="#5896FA"/>
<path d="M260.291 97.5131H254.424C254.052 97.5131 253.748 97.8148 253.748 98.1891C253.748 98.5611 254.05 98.865 254.424 98.865H260.291C260.663 98.865 260.967 98.5633 260.967 98.1891C260.965 97.8148 260.663 97.5131 260.291 97.5131Z" fill="#D1F5FF"/>
<path d="M269.312 97.5131H263.445C263.073 97.5131 262.769 97.8148 262.769 98.1891C262.769 98.5611 263.071 98.865 263.445 98.865H269.312C269.684 98.865 269.988 98.5633 269.988 98.1891C269.988 97.8148 269.686 97.5131 269.312 97.5131Z" fill="#D1F5FF"/>
<path d="M278.335 97.5131H272.469C272.097 97.5131 271.793 97.8148 271.793 98.1891C271.793 98.5611 272.094 98.865 272.469 98.865H278.335C278.708 98.865 279.012 98.5633 279.012 98.1891C279.012 97.8148 278.71 97.5131 278.335 97.5131Z" fill="#D1F5FF"/>
<path d="M287.359 97.5131H281.492C281.12 97.5131 280.816 97.8148 280.816 98.1891C280.816 98.5611 281.118 98.865 281.492 98.865H287.359C287.731 98.865 288.035 98.5633 288.035 98.1891C288.033 97.8148 287.731 97.5131 287.359 97.5131Z" fill="#D1F5FF"/>
<path d="M254.152 79.4486C253.741 79.4486 253.408 79.782 253.408 80.1926V80.4534C253.408 80.864 253.741 81.1974 254.152 81.1974C254.563 81.1974 254.896 80.864 254.896 80.4534V80.1926C254.899 79.782 254.565 79.4486 254.152 79.4486Z" fill="#D1F5FF"/>
<path d="M255.759 80.3241C255.759 80.8073 256.151 81.1997 256.635 81.1997H259.739C260.223 81.1997 260.615 80.8073 260.615 80.3241C260.615 79.841 260.223 79.4486 259.739 79.4486H256.635C256.151 79.4486 255.759 79.841 255.759 80.3241Z" fill="#D1F5FF"/>
<path d="M255.35 89.0729H259.36C260.003 89.0729 260.525 89.5946 260.525 90.2365V93.6933C260.525 94.3353 260.003 94.857 259.36 94.857H255.35C254.708 94.857 254.186 94.3353 254.186 93.6933V90.2365C254.186 89.5923 254.708 89.0729 255.35 89.0729Z" fill="#5896FA"/>
<path d="M274.956 162.848V160.124C274.956 158.888 273.953 157.883 272.716 157.883H248.855C247.618 157.883 246.613 158.886 246.613 160.124V208.287H308.331V162.848H274.956Z" fill="#1251B3"/>
<path d="M310.898 164.502H250.378L246.613 208.284H308.031L310.898 164.502Z" fill="#E8F6FF"/>
<path d="M308.333 208.284H246.615L253.165 165.046C253.355 163.781 254.445 162.846 255.725 162.846H312.207C313.791 162.846 315.003 164.255 314.767 165.82L308.333 208.284Z" fill="#3383FF"/>
<path d="M324.79 174.497C330.312 168.977 330.312 160.028 324.79 154.509C319.267 148.989 310.314 148.989 304.791 154.509C299.269 160.028 299.269 168.977 304.791 174.497C310.314 180.016 319.267 180.016 324.79 174.497Z" fill="#005CEA"/>
<path d="M314.794 179.153C306.711 179.153 300.134 172.579 300.134 164.502C300.134 156.425 306.711 149.851 314.794 149.851C322.878 149.851 329.455 156.425 329.455 164.502C329.455 172.582 322.876 179.153 314.794 179.153ZM314.794 150.886C307.28 150.886 301.171 156.994 301.171 164.502C301.171 172.01 307.28 178.121 314.794 178.121C322.309 178.121 328.418 172.01 328.418 164.502C328.418 156.994 322.309 150.886 314.794 150.886Z" fill="#E8F6FF"/>
<path d="M307.986 161.946V171.953C307.986 173.067 321.601 173.067 321.601 171.953V161.946H307.986ZM315.482 167.26V170.098C315.482 170.477 315.176 170.79 314.797 170.79C314.413 170.79 314.105 170.477 314.105 170.098V167.256C313.521 166.993 313.111 166.405 313.111 165.725C313.111 164.797 313.866 164.046 314.794 164.046C315.723 164.046 316.474 164.795 316.474 165.725C316.476 166.407 316.072 166.997 315.482 167.26Z" fill="#E8F6FF"/>
<path d="M320.409 161.231H319.032V160.558C319.032 158.223 317.13 156.323 314.794 156.323C312.459 156.323 310.557 158.223 310.557 160.558V161.231H309.18V160.558C309.18 157.464 311.699 154.946 314.794 154.946C317.89 154.946 320.409 157.464 320.409 160.558V161.231Z" fill="#E8F6FF"/>
<path d="M265.688 51.6282C268.678 51.6282 271.103 49.2051 271.103 46.2161C271.103 43.2271 268.678 40.804 265.688 40.804C262.697 40.804 260.273 43.2271 260.273 46.2161C260.273 49.2051 262.697 51.6282 265.688 51.6282Z" fill="#AAE0FF"/>
<path d="M128.867 67.3225C129.373 64.3765 127.395 61.5779 124.447 61.0715C121.5 60.5652 118.699 62.5429 118.193 65.4889C117.686 68.4349 119.665 71.2335 122.612 71.7399C125.56 72.2462 128.36 70.2685 128.867 67.3225Z" fill="#AAE0FF"/>
<path d="M303.654 141.284C305.218 141.284 306.486 140.017 306.486 138.453C306.486 136.89 305.218 135.622 303.654 135.622C302.089 135.622 300.821 136.89 300.821 138.453C300.821 140.017 302.089 141.284 303.654 141.284Z" fill="#E8F6FF"/>
<path d="M9.98675 144.404C10.3442 142.882 9.39946 141.359 7.87667 141.001C6.35389 140.644 4.82968 141.588 4.47225 143.11C4.11483 144.632 5.05953 146.156 6.58231 146.513C8.1051 146.87 9.62932 145.926 9.98675 144.404Z" fill="#AAE0FF"/>
<path d="M53.9034 251.786C56.597 250.488 57.7275 247.253 56.4284 244.56C55.1292 241.868 51.8925 240.738 49.1988 242.037C46.5052 243.335 45.3747 246.57 46.6738 249.262C47.973 251.955 51.2097 253.085 53.9034 251.786Z" fill="#AAE0FF"/>
<path d="M138.423 12.691C137.905 12.691 137.485 12.2714 137.485 11.7542V1.71481C137.485 1.19765 137.905 0.778015 138.423 0.778015C138.94 0.778015 139.36 1.19765 139.36 1.71481V11.7519C139.362 12.2714 138.942 12.691 138.423 12.691Z" fill="#AAE0FF"/>
<path d="M132.463 6.7345C132.463 6.21733 132.883 5.7977 133.4 5.7977H143.443C143.96 5.7977 144.38 6.21733 144.38 6.7345C144.38 7.25166 143.96 7.67129 143.443 7.67129H133.4C132.883 7.67129 132.463 7.25166 132.463 6.7345Z" fill="#AAE0FF"/>
<path d="M245.19 141.579C244.672 141.579 244.253 141.159 244.253 140.642V130.605C244.253 130.088 244.672 129.668 245.19 129.668C245.707 129.668 246.127 130.088 246.127 130.605V140.642C246.127 141.159 245.707 141.579 245.19 141.579Z" fill="#E8F6FF"/>
<path d="M239.23 135.622C239.23 135.105 239.65 134.686 240.167 134.686H250.21C250.727 134.686 251.147 135.105 251.147 135.622C251.147 136.14 250.727 136.559 250.21 136.559H240.167C239.65 136.559 239.23 136.14 239.23 135.622Z" fill="#E8F6FF"/>
<path d="M234.979 273.788C234.462 273.788 234.042 273.368 234.042 272.851V262.814C234.042 262.296 234.462 261.877 234.979 261.877C235.497 261.877 235.917 262.296 235.917 262.814V272.851C235.917 273.368 235.497 273.788 234.979 273.788Z" fill="#E8F6FF"/>
<path d="M229.02 267.831C229.02 267.314 229.44 266.894 229.957 266.894H240C240.517 266.894 240.937 267.314 240.937 267.831C240.937 268.348 240.517 268.768 240 268.768H229.957C229.44 268.768 229.02 268.348 229.02 267.831Z" fill="#E8F6FF"/>
<path d="M151.39 201.865C153.049 201.865 154.393 200.521 154.393 198.864C154.393 197.207 153.049 195.863 151.39 195.863C149.732 195.863 148.388 197.207 148.388 198.864C148.388 200.521 149.732 201.865 151.39 201.865Z" stroke="#E8F6FF" stroke-width="4.2257" stroke-miterlimit="10"/>
<path d="M225.191 473.786H213.44L212.226 448.25H226.408L225.191 473.786Z" fill="#0E0E0E"/>
<path d="M429.414 473.786H417.665L416.449 448.25H430.631L429.414 473.786Z" fill="#0E0E0E"/>
<path d="M419.17 403.927C417.874 407.942 416.462 412.064 414.919 416.292H219.844C219.844 416.292 194.669 313.877 219.844 295.148C220.489 294.669 221.26 294.197 222.161 293.737C256.067 276.323 392.009 272.236 419.608 294.637C419.819 294.803 420.014 294.975 420.202 295.148C430.374 304.48 439.216 341.722 419.17 403.927Z" fill="#EA7B00"/>
<path d="M293.393 416.292H219.89L227.057 344.512C239.875 350.072 273.998 379.421 293.393 416.292Z" fill="#982C20"/>
<path d="M419.17 403.927C417.874 407.942 416.462 412.064 414.919 416.292H344.066C356.251 393.707 385.797 359.497 414.488 343.748L419.17 403.927Z" fill="#982C20"/>
<path d="M443.614 343.507H416.569C412.023 343.507 408.181 346.874 407.584 351.378L398.958 416.564H240.894L232.267 351.378C231.671 346.874 227.828 343.507 223.283 343.507H196.24C190.598 343.507 186.327 348.604 187.318 354.157L202.333 462.712H217.187H437.042H437.521L452.535 354.157C453.527 348.607 449.256 343.507 443.614 343.507Z" fill="#EA7B00"/>
<path d="M397.383 380.959C410.11 385.216 407.629 412.15 397.383 416.292H242.986C231.455 413.318 230.481 377.69 247.11 380.371C348.882 399.495 353.813 368.985 397.383 380.959Z" fill="#F2B066"/>
<path d="M279.704 353.66C279.656 360.615 280.031 367.159 280.78 372.893H353.176L357.463 302.241C353.162 276.435 341.39 270.181 322.756 270.181C306.08 270.181 294.973 283.777 288.223 301.978C282.389 317.704 279.806 336.859 279.704 353.66Z" fill="#007880"/>
<path d="M279.704 355.023L305.903 353.447C291.358 348.688 290.2 326.377 304.986 312.496L288.221 301.978C282.389 317.704 279.806 338.225 279.704 355.023Z" fill="#005459"/>
<path d="M274.716 387.494H374.182V353.663H284.586L274.716 387.494Z" fill="#0E0E0E"/>
<path d="M386.891 376.758L360.175 473.786H339.341C345.936 432.496 344.459 405.656 350.663 371.371C356.106 343.226 393.368 350.675 386.891 376.758Z" fill="#0E0E0E"/>
<path d="M352.692 473.786C352.692 473.722 352.688 473.659 352.688 473.593C352.688 466.4 358.523 460.569 365.719 460.569C372.916 460.569 378.75 466.4 378.75 473.593C378.75 473.656 378.746 473.72 378.746 473.786H352.692Z" fill="#B15626"/>
<path d="M368.229 460.811L363.493 459.364C360.365 453.217 347.032 453.979 348.889 461.46C343.658 462.238 340.905 459.634 340.905 459.634L339.341 473.784H367.591L368.229 460.811Z" fill="#B15626"/>
<path d="M269.577 376.758L296.294 473.786H317.127C310.532 432.496 312.01 405.656 305.805 371.371C300.363 343.226 263.1 350.675 269.577 376.758Z" fill="#0E0E0E"/>
<path d="M303.776 473.786C303.776 473.722 303.781 473.659 303.781 473.593C303.781 466.4 297.946 460.569 290.749 460.569C283.553 460.569 277.718 466.4 277.718 473.593C277.718 473.656 277.723 473.72 277.723 473.786H303.776Z" fill="#B15626"/>
<path d="M288.239 460.811L292.976 459.364C296.103 453.217 309.436 453.979 307.58 461.46C312.811 462.238 315.564 459.634 315.564 459.634L317.127 473.784H288.877L288.239 460.811Z" fill="#B15626"/>
<path d="M311.599 272.449C321.369 278.376 322.763 295.976 317.754 302.987L289.873 323.746L318.26 338.356L313.648 353.447C313.648 353.447 284.02 351.038 269.516 336.17C255.588 321.893 289.537 279.957 311.599 272.449Z" fill="#007880"/>
<path d="M331.421 299.147C323.062 288.658 328.836 272.449 339.489 272.926C374.182 285.133 384.892 319.028 373.901 334.244C364.485 347.28 323.062 352.299 323.062 352.299V338.027L351.844 331.812C351.844 331.814 337.003 308.832 331.421 299.147Z" fill="#007880"/>
<path d="M301.019 348.681C300.481 343.902 303.279 337.925 310.476 336.619C323.046 334.337 327.597 341.23 328.783 346.159C329.092 347.443 327.926 348.802 326.845 348.681C325.765 348.561 325.007 347.953 324.821 346.976C324.599 345.798 323.974 344.342 322.626 343.582C323.925 346.127 323.382 348.681 319.844 348.681H301.019Z" fill="#F7A594"/>
<path d="M329.401 348.668L339.293 299.092H341.39C340.721 302.506 330.989 352.111 330.685 353.66C328.094 353.66 304.275 353.66 301.039 353.66L297.801 348.668H329.401Z" fill="#99C1FF"/>
<path d="M341.388 299.092H414.998L404.112 353.663H330.683L341.388 299.092Z" fill="#E8F6FF"/>
<path d="M319.928 276.004C319.928 281.645 336.847 285.385 342.378 279.456C343.215 278.567 343.789 277.462 344.012 276.11L347.198 261.822L326.991 254.208L326.389 256.075L319.928 276.004Z" fill="#F7A594"/>
<path d="M344.009 276.11L347.196 261.822L328.078 256.678C323.133 271.399 340.791 283.158 344.009 276.11Z" fill="#F4856D"/>
<path d="M325.497 248.719C324.433 262.761 335.537 275.128 344.854 275.756C354.17 276.385 366.999 265.982 368.061 251.939C369.123 237.897 360.458 225.793 348.705 224.902C336.951 224.015 326.559 234.678 325.497 248.719Z" fill="#F7A594"/>
<path d="M341.073 225.968C353.956 217.813 361.046 225.482 367.462 233.616C371.965 239.323 375.153 243.424 380.754 244.284C369.977 257.871 348.423 248.907 341.633 235.293C340.964 243.043 331.825 249.463 325.497 248.721C323.446 240.095 329.423 222.661 341.073 225.968Z" fill="#0E0E0E"/>
<path d="M328.862 254.434C331.919 253.939 333.995 251.059 333.499 248.004C333.003 244.948 330.122 242.873 327.065 243.369C324.008 243.865 321.932 246.744 322.428 249.8C322.924 252.855 325.805 254.93 328.862 254.434Z" fill="#F7A594"/>
</g>
<path d="M2.74138 479.982H499.259C500.773 479.982 502 478.602 502 476.9C502 475.198 500.773 473.818 499.259 473.818H2.74138C1.22735 473.818 0 475.198 0 476.9C0 478.602 1.22735 479.982 2.74138 479.982Z" fill="#2D5B98"/>
<defs>
<clipPath id="clip0_2_343">
<rect width="448.277" height="473.818" fill="white" transform="translate(4.4035)"/>
</clipPath>
</defs>
</svg>
