<svg width="586" height="349" viewBox="0 0 586 349" fill="none" xmlns="http://www.w3.org/2000/svg">
<g clip-path="url(#clip0_15_641)">
<path d="M146.811 -3.16315H48.8528V108.979H146.811V-3.16315Z" fill="#BFE8FF"/>
<path d="M146.811 118.149H48.8528V230.47H146.811V118.149Z" fill="#BFE8FF"/>
<path d="M254.827 -3.16315H154.895V108.979H254.827V-3.16315Z" fill="#BFE8FF"/>
<path d="M254.827 118.149H154.895V230.47H254.827V118.149Z" fill="#BFE8FF"/>
<path d="M576.906 349H2.77432C1.7587 349 0.936523 348.18 0.936523 347.166C0.936523 346.153 1.7587 345.332 2.77432 345.332H576.906C577.922 345.332 578.744 346.153 578.744 347.166C578.744 348.18 577.922 349 576.906 349Z" fill="#2E5B99"/>
<path d="M580.619 296.705C580.038 292.118 578.555 287.836 576.372 284.058L577.574 283.366L579.951 282.001L579.981 281.983C577.489 277.653 574.191 273.887 570.287 270.881L567.738 274.16C564.207 271.442 560.154 269.392 555.767 268.229L556.852 264.212C552.197 262.939 547.207 262.55 542.126 263.191L542.649 267.323C538.036 267.905 533.762 269.383 529.975 271.561L527.894 267.96C523.555 270.447 519.782 273.753 516.768 277.633L520.054 280.177C517.33 283.7 515.275 287.744 514.108 292.122L510.082 291.04C508.806 295.684 508.417 300.664 509.06 305.734L513.2 305.212C513.783 309.813 515.264 314.08 517.447 317.859L514.893 319.325L513.854 319.934L513.838 319.936C516.33 324.266 519.644 328.03 523.532 331.038L526.081 327.759C529.612 330.477 533.681 332.525 538.066 333.69L536.981 337.707C541.636 338.98 546.61 339.371 551.693 338.73L551.17 334.598C555.781 334.016 560.071 332.536 563.86 330.358L565.474 333.159L565.942 333.959C570.28 331.472 574.037 328.168 577.051 324.289L573.765 321.745C576.489 318.222 578.541 314.161 579.723 309.783L583.748 310.865C585.008 306.223 585.4 301.259 584.757 296.187L580.619 296.705ZM549.224 319.221C539.107 320.497 529.883 313.359 528.605 303.263C527.329 293.184 534.482 283.98 544.6 282.705C554.701 281.431 563.924 288.569 565.2 298.649C566.478 308.744 559.325 317.948 549.224 319.221Z" fill="#ED5A24"/>
<path d="M542.246 220.44C540.825 217.524 538.872 215.012 536.569 212.992L537.212 212.261L538.483 210.82L538.499 210.8C535.864 208.483 532.824 206.723 529.552 205.601L528.598 208.352C525.637 207.339 522.482 206.888 519.306 207.102L519.119 204.188C515.738 204.388 512.334 205.252 509.103 206.819L510.384 209.448C507.45 210.871 504.944 212.815 502.917 215.113L500.72 213.187C498.399 215.816 496.64 218.861 495.511 222.115L498.27 223.067C497.254 226.022 496.803 229.17 497.015 232.34L494.095 232.526C494.295 235.899 495.161 239.296 496.732 242.52L499.366 241.242C500.792 244.17 502.74 246.67 505.043 248.693L503.677 250.242L503.125 250.878L503.116 250.883C505.748 253.199 508.802 254.955 512.063 256.081L513.016 253.328C515.978 254.342 519.142 254.787 522.32 254.574L522.507 257.488C525.888 257.288 529.28 256.428 532.513 254.861L531.233 252.232C534.167 250.809 536.684 248.861 538.709 246.562L540.413 248.061L540.903 248.486C543.225 245.857 544.975 242.819 546.103 239.562L543.347 238.611C544.362 235.656 544.809 232.498 544.606 229.322L547.527 229.136C547.317 225.767 546.456 222.382 544.885 219.155L542.246 220.44ZM526.468 242.46C520.033 245.583 512.293 242.913 509.166 236.492C506.043 230.081 508.716 222.359 515.151 219.236C521.576 216.12 529.315 218.788 532.44 225.199C535.567 231.62 532.891 239.344 526.468 242.46Z" stroke="#CC9B47" stroke-width="3" stroke-miterlimit="10"/>
<path d="M107.285 201.191C111.117 205.135 105.514 209.995 105.557 216.326C105.603 222.658 113.261 224.967 107.077 234.281C103.271 240.017 98.273 234.047 95.7696 242.293C93.264 250.538 96.4398 251.338 92.6652 254.776C86.0832 260.769 73.062 252.043 75.5999 243.802C78.1379 235.561 85.922 234.985 81.339 229.297C76.7561 223.611 74.9919 221.125 80.5813 216.901C87.4996 211.671 94.7794 214.237 94.427 208.304C94.0769 202.372 102.216 195.972 107.285 201.191Z" fill="#FFCA59"/>
<path d="M84.3491 263.842L83.0317 263.798C84.0405 232.693 100.366 208.35 100.532 208.108L101.622 208.846C101.46 209.087 85.3463 233.13 84.3491 263.842Z" fill="#0E0E0E"/>
<path d="M26.2166 187.302C22.1265 193.419 30.6821 198.466 32.1538 206.812C33.6254 215.159 23.8952 216.747 34.2886 227.518C40.691 234.153 42.6624 230.798 43.5997 243.862C44.4242 255.364 54.3685 245.843 59.8658 253.261C66.959 262.831 82.2924 245.93 76.9564 235.692C71.6203 225.454 63.6151 226.854 68.2695 218.264C72.9261 209.673 69.7203 202.308 61.3374 198.093C50.9624 192.874 45.8359 201.467 44.8617 193.571C43.8922 185.674 31.6264 179.212 26.2166 187.302Z" fill="#ED5A24"/>
<path d="M71.5812 264.258C62.8297 224.043 35.7971 196.296 35.5253 196.02L36.7828 194.786C37.0591 195.067 64.4441 223.179 73.3038 263.886L71.5812 264.258Z" fill="#0E0E0E"/>
<path d="M76.3783 324.583C62.0122 324.583 50.3636 312.961 50.3636 298.623V263.235H102.391V298.623C102.391 312.961 90.7444 324.583 76.3783 324.583Z" fill="#5896FA"/>
<path d="M50.3636 289.98H47.4802V344.907H50.3636V289.98Z" fill="#0E0E0E"/>
<path d="M105.274 289.98H102.391V344.907H105.274V289.98Z" fill="#0E0E0E"/>
<path d="M83.2113 289.98H80.3279V344.907H83.2113V289.98Z" fill="#0E0E0E"/>
<path d="M102.524 324.583H47.4802V327.46H102.524V324.583Z" fill="#0E0E0E"/>
<path d="M294.127 86.3858V70.9242C294.127 63.9035 288.425 58.2112 281.389 58.2112H145.763C138.728 58.2112 133.023 63.9035 133.023 70.9242V344.248H483.846V86.3858H294.127Z" fill="white"/>
<path d="M295.253 86.3858V70.9242C295.253 63.9035 289.551 58.2112 282.516 58.2112H146.889C139.854 58.2112 134.149 63.9035 134.149 70.9242V344.248H484.973V86.3858H295.253Z" fill="#0F4599"/>
<path d="M145.899 97.0696V344.248H470.887V95.8562L145.899 97.0696Z" fill="#BAE2FF"/>
<path d="M163.743 97.0696V344.248H488.729V95.8562L163.743 97.0696Z" fill="#1480CC"/>
<path d="M501.831 86.3881H180.767C174.175 86.3881 169.323 90.8372 168.376 96.9915V344.248H518.785V103.263C518.866 94.3832 510.835 86.3881 501.831 86.3881Z" fill="white"/>
<path d="M454.597 40.0766L255.062 40.6342L255.487 191.952L455.022 191.395L454.597 40.0766Z" fill="#EBF3FF"/>
<path d="M449.407 45.0295L260.079 45.5586L260.47 184.667L449.797 184.138L449.407 45.0295Z" fill="#3397FF"/>
<path d="M276.426 173.456L398.094 173.116L331.57 109.431L276.426 173.456Z" fill="#E3EEFF"/>
<path d="M331.749 173.3L433.979 173.015L378.507 120.381L331.749 173.3Z" fill="#E3EEFF"/>
<path d="M379.53 105.21C385.032 99.7189 385.032 90.8169 379.53 85.3263C374.027 79.8357 365.106 79.8357 359.604 85.3263C354.102 90.8169 354.102 99.719 359.604 105.21C365.106 110.7 374.027 110.7 379.53 105.21Z" fill="#E3EEFF"/>
<path d="M480.38 21.8933L295.396 22.4848L295.912 183.014L480.896 182.422L480.38 21.8933Z" fill="#EBF3FF"/>
<path d="M475.038 27.1481L300.558 27.7094L301.035 175.284L475.515 174.722L475.038 27.1481Z" fill="#3397FF"/>
<path d="M387.182 48.0812H317.694V54.1734H387.182V48.0812Z" fill="#CCE5FF"/>
<path d="M459.071 64.5332H317.694V70.6255H459.071V64.5332Z" fill="#CCE5FF"/>
<path d="M459.071 81.2817H317.694V87.374H459.071V81.2817Z" fill="#CCE5FF"/>
<path d="M503.376 86.3881H182.314C175.723 86.3881 170.871 90.8372 169.924 96.9915V344.248H520.333V103.263C520.411 94.3832 512.381 86.3881 503.376 86.3881Z" fill="#66B8FF"/>
<path d="M168.376 342.825H133.021V344.248H168.376V342.825Z" fill="white"/>
<path opacity="0.5" d="M133.021 190.97L145.899 199.355H163.609L168.376 202.695V199.565H518.788V190.97H133.021Z" fill="black"/>
<path d="M525.927 149.946H128.044V194.808H525.927V149.946Z" fill="#61B3F2"/>
<path d="M525.925 149.946H163.86V194.808H525.925V149.946Z" fill="#2E97E6"/>
<path d="M263.956 149.946V194.789H295.415L273.357 149.946H263.956Z" fill="#0E0E0E"/>
<path d="M264.916 149.96H256.561V194.789H264.916C267.654 194.789 270.132 192.326 271.915 188.189C273.741 184.149 274.828 178.532 274.828 172.325C274.828 160.01 270.395 149.96 264.916 149.96ZM264.133 172.325C264.133 168.582 265.351 165.528 266.915 165.033C268.479 165.528 269.697 168.582 269.697 172.325C269.697 176.17 268.479 179.222 266.915 179.714C265.351 179.222 264.133 176.17 264.133 172.325Z" fill="#2475B3"/>
<path d="M260.202 149.96H256.563V194.789H260.202C263.069 194.789 265.66 192.326 267.525 188.189C269.434 184.149 270.572 178.532 270.572 172.325C270.572 160.01 265.931 149.96 260.202 149.96ZM262.567 179.716C260.929 179.222 259.656 176.17 259.656 172.328C259.656 168.584 260.929 165.53 262.567 165.036C264.204 165.53 266.569 168.584 266.569 172.328C266.569 176.17 264.204 179.222 262.567 179.716Z" fill="#3F9EE6"/>
<path d="M260.913 149.96H252.558V194.789H260.913C263.652 194.789 266.13 192.326 267.912 188.189C269.738 184.149 270.825 178.532 270.825 172.325C270.825 160.01 266.392 149.96 260.913 149.96ZM260.13 172.325C260.13 168.582 261.349 165.528 262.912 165.033C264.476 165.528 265.694 168.582 265.694 172.325C265.694 176.17 264.476 179.222 262.912 179.714C261.349 179.222 260.13 176.17 260.13 172.325Z" fill="#2475B3"/>
<path d="M256.199 149.96H252.56V194.789H256.199C259.066 194.789 261.657 192.326 263.523 188.189C265.432 184.149 266.57 178.532 266.57 172.325C266.57 160.01 261.931 149.96 256.199 149.96ZM259.656 179.716C258.018 179.222 256.745 176.17 256.745 172.328C256.745 168.584 258.018 165.53 259.656 165.036C261.293 165.53 262.567 168.584 262.567 172.328C262.567 176.17 261.293 179.222 259.656 179.716Z" fill="#61B3F2"/>
<path d="M260.955 195.083C260.927 195.083 260.909 195.083 260.904 195.083C260.743 195.076 260.616 194.941 260.623 194.78C260.63 194.619 260.768 194.493 260.927 194.5C260.946 194.497 262.979 194.546 265.116 192.484C267.468 190.216 270.27 185.066 270.27 173.401C270.27 152.114 260.962 150.264 260.867 150.248C260.708 150.22 260.602 150.068 260.628 149.91C260.655 149.751 260.807 149.645 260.966 149.671C261.07 149.689 263.518 150.142 265.971 153.334C268.198 156.232 270.855 162.067 270.855 173.399C270.855 185.296 267.942 190.581 265.501 192.923C263.345 194.987 261.309 195.083 260.955 195.083Z" fill="#1A5380"/>
<path d="M259.66 179.114C259.264 179.213 258.972 179.312 258.576 179.41C258.675 179.509 258.675 179.509 258.576 179.509C242.678 184.239 230.931 198.82 230.931 216.258V253.708H218.292V216.258C218.292 192.022 235.373 171.725 258.182 166.601C258.677 166.403 259.17 166.304 259.663 166.208C263.313 165.42 263.61 178.526 259.66 179.114Z" fill="#CCCCCC"/>
<path d="M274.619 165.539V178.08C290.91 180.173 304.062 192.234 307.561 207.994C307.662 208.387 307.759 208.681 307.759 208.978C307.957 209.865 308.056 210.653 308.155 211.54C308.353 213.116 308.452 214.693 308.452 216.269V253.719H320.992V216.267C320.99 189.782 300.592 168.081 274.619 165.539Z" fill="#CCCCCC"/>
<path d="M259.951 175.414C230.316 180.601 226.5 212.797 226.5 212.797V253.719H230.944V216.267C230.944 198.459 243.18 183.574 259.649 179.139C260.909 178.732 261.692 175.055 261.692 175.055C261.692 175.055 260.913 175.23 259.951 175.414Z" fill="#808080"/>
<path d="M274.619 175.414V178.08C290.91 180.173 304.062 192.234 307.561 207.994C306.854 198.795 299.21 178.691 274.619 175.414Z" fill="#808080"/>
<path d="M259.661 179.114C259.264 179.213 258.972 179.312 258.576 179.41C258.873 178.622 260.478 176.832 260.676 173.088C260.874 169.244 259.566 166.647 258.18 166.601C258.675 166.403 259.168 166.304 259.661 166.208C263.313 165.42 263.61 178.526 259.661 179.114Z" fill="#666666"/>
<path d="M218.43 256.036C218.112 256.036 217.854 255.778 217.854 255.461V217.414C217.838 217.039 217.645 211.68 219.293 204.466C220.839 197.701 224.374 188.005 232.434 180.24C232.662 180.019 233.029 180.026 233.25 180.254C233.471 180.481 233.464 180.847 233.236 181.067C225.39 188.628 221.94 198.085 220.424 204.689C218.778 211.869 219.001 217.324 219.003 217.379V217.405V255.466C219.006 255.778 218.748 256.036 218.43 256.036Z" fill="white"/>
<path d="M331.952 243.497H207.445V345.057H331.952V243.497Z" fill="#F7AF0C"/>
<path d="M253.608 283.902C253.608 290.167 257.362 295.639 262.691 298.024V324.181C262.691 327.265 264.865 329.85 267.73 330.448H268.025C268.322 330.547 268.716 330.547 269.013 330.547C272.47 330.547 275.33 327.663 275.33 324.181V298.024C280.662 295.538 284.415 290.167 284.415 283.902C284.415 275.347 277.502 268.484 269.013 268.484C268.617 268.484 268.223 268.484 267.827 268.583C259.829 269.183 253.608 275.746 253.608 283.902Z" fill="#CC840A"/>
<path d="M253.608 283.902C253.608 290.167 257.362 295.639 262.691 298.024V324.181C262.691 327.265 264.865 329.85 267.73 330.448H268.025C270.888 329.85 273.062 327.265 273.062 324.181V298.024C278.393 295.538 282.147 290.167 282.147 283.902C282.147 275.746 275.828 269.08 267.829 268.586C259.829 269.183 253.608 275.746 253.608 283.902Z" fill="#803D00"/>
<path d="M292.441 345.057H331.95V243.497H320.989C320.989 243.497 323.9 318.433 292.441 345.057Z" fill="#E6950B"/>
<path d="M234.178 345.057C224.742 324.91 226.502 270.743 226.502 243.497H213.962V345.057H234.178Z" fill="#F7E4AD"/>
<path d="M442.164 147.733C442.164 147.733 448.643 153.873 446.575 165.511C456.277 173.607 457.334 188.042 455.925 194.731C472.661 209.869 468.538 231.498 456.867 237.857C445.736 243.92 429.452 238.184 422.762 224.009C412.11 206.247 401.712 173.079 418.469 155.652C414.945 143.39 437.342 141.397 442.164 147.733Z" fill="#0E0E0E"/>
<path d="M419.662 176.468L403.126 159.701L403.14 130.688L397.677 129.971C397.677 129.971 393.207 156.358 393.221 161.967C393.235 166.945 409.978 188.584 409.978 188.584L419.662 176.468Z" fill="#FFA599"/>
<path d="M443.224 192.541L434.097 217.547H409.883C409.883 217.547 408.301 202.087 407.969 193.863C407.896 191.879 407.896 190.301 408.006 189.457C408.815 183.507 418.641 175.43 418.641 175.43C418.641 175.43 418.715 175.43 418.863 175.393C420.813 175.172 434.097 173.704 438.954 177.778C444.145 182.188 443.224 192.541 443.224 192.541Z" fill="#008C86"/>
<path d="M441.718 248.217H420.168C420.705 252.595 422.99 257.35 423.971 261.261C432.745 285.251 437.024 317.364 446.287 338.523C446.287 338.523 450.271 340.584 452.917 338.523C451.109 322.602 451.236 312.727 446.04 286.354C444.225 278.681 444.956 260.346 441.718 248.217Z" fill="#FFA599"/>
<path d="M405.471 248.217C402.677 274.818 397.539 332.277 396.972 338.206L403.822 338.24C408.312 323.015 414.042 309.356 414.547 290.04C418.04 279.414 423.858 261.539 428.217 248.215H405.471V248.217Z" fill="#FFA599"/>
<path d="M442.305 253.523L426.034 254.861L422.084 255.187L404.618 256.633C403.861 264.016 403.016 272.784 402.189 281.799C407.444 283.973 414.782 287.115 415.413 287.395L423.968 261.261C426.474 269.403 429.535 280.048 431.847 288.358C436.246 286.299 440.953 284.548 445.552 283.569C444.698 273.944 443.641 262.879 442.305 253.523Z" fill="#E87C5D"/>
<path d="M437.031 177.957L453.06 165.693L447.943 138.685L453.783 136.891C453.783 136.891 466.417 162.388 466.403 167.998C466.392 172.975 443.224 192.674 443.224 192.674C439.431 194.462 433.772 186.1 437.031 177.957Z" fill="#FFA599"/>
<path d="M421.165 174.701C421.165 174.701 414.353 179.35 416.898 182.827C419.088 185.822 424.493 182.409 424.493 182.409C424.493 182.409 425.401 187.04 429.035 186.421C434.085 185.562 435.142 178.139 433.028 175.717C430.914 173.295 423.632 173.451 421.165 174.701Z" fill="white"/>
<path d="M432.754 177.277C432.754 179.297 429.387 182.2 424.689 181.965C421.707 181.816 420.03 180.129 420.518 178.038L421.034 175.358L422.469 167.719L433.408 168.014L432.754 177.277Z" fill="#FFA599"/>
<path d="M432.662 169.445C431.154 172.594 428.169 175.009 421.034 175.358L422.469 167.719L432.625 168.014L432.662 169.445Z" fill="#E87C5D"/>
<path d="M437.667 163.489C435.787 169.661 428.565 173.373 421.366 170.877C414.473 165.012 417.667 157.38 419.171 155.245C417.37 145.088 428.646 140.246 435.866 144.401C442.056 147.967 441.642 156.181 437.667 163.489Z" fill="#FFA599"/>
<path d="M455.81 279.016C449.407 281.33 441.349 282.578 433.289 283.093C417.207 284.01 398.746 281.353 397.09 278.453C400.379 248.452 409.92 217.549 409.92 217.549H434.097C438.367 220.89 442.231 226.73 444.732 232.972C446.425 237.892 453.196 259.446 455.81 279.016Z" fill="#008C86"/>
<path d="M384.596 345.125C384.596 345.04 388.666 345.036 393.018 345.056C398.027 345.073 404.264 345.125 404.264 345.125C404.388 343.195 404.462 341.198 403.824 338.243L395.978 338.204C395.978 338.204 393.801 338.569 389.99 339.729C389.739 339.805 389.469 339.86 389.195 339.927C383.099 341.334 384.596 345.302 384.596 345.125Z" fill="#FDFEFF"/>
<path d="M384.596 345.125C384.596 345.04 388.666 345.036 393.018 345.056C393.154 344.661 393.223 344.241 393.223 343.806C393.223 341.922 391.869 340.318 389.987 339.729C389.734 339.798 389.467 339.86 389.193 339.927C383.099 341.334 384.596 345.302 384.596 345.125Z" fill="#D9ECFF"/>
<path d="M384.196 345.131H404.534V343.897H384.196V345.131Z" fill="#D9ECFF"/>
<path d="M445.835 345.403C445.953 345.408 447.945 345.381 450.416 345.358C454.439 345.318 459.727 345.289 460.224 345.403C461.625 342.023 458.718 340.29 456.042 339.334C454.902 338.932 453.799 338.668 453.094 338.482L446.277 338.521C445.64 341.474 445.713 343.471 445.835 345.403Z" fill="#FDFEFF"/>
<path d="M460.627 344.174H445.568V345.408H460.627V344.174Z" fill="#D9ECFF"/>
<path d="M450.418 345.358C454.442 345.318 459.729 345.289 460.227 345.403C461.627 342.023 458.721 340.29 456.045 339.334C454.492 339.171 452.682 339.426 451.257 340.911C449.75 342.48 449.879 344.098 450.418 345.358Z" fill="#D9ECFF"/>
<path d="M422.234 220.555C414.987 220.555 409.763 218.089 409.687 218.052C409.413 217.919 409.298 217.59 409.432 217.317C409.565 217.043 409.895 216.929 410.169 217.062C410.282 217.117 421.58 222.432 433.867 217.053C434.145 216.931 434.472 217.057 434.594 217.335C434.716 217.613 434.59 217.94 434.311 218.062C430.037 219.932 425.877 220.555 422.234 220.555Z" fill="white"/>
<path d="M411.157 154.069C418.683 163.045 428.56 145.15 435.2 150.773C435.2 150.773 435.787 164.192 440.308 159.681C441.718 158.001 443.302 150.07 439.546 147.434C439.636 143.098 432.404 138.814 423.936 140.848C418.077 142.491 416.364 146.8 415.915 148.717C412.568 147.811 409.432 151.019 411.157 154.069Z" fill="#0E0E0E"/>
<path d="M490.81 129.676L342.92 102.733L340.179 117.716L488.068 144.66L490.81 129.676Z" fill="#0C3980"/>
<path d="M490.864 129.388L342.974 102.445L342.792 103.442L490.681 130.385L490.864 129.388Z" fill="white"/>
<path d="M521.676 102.389C499.933 98.4113 479.026 112.839 475.04 134.569C471.09 156.266 485.548 177.128 507.289 181.106C529.031 185.047 549.938 170.62 553.924 148.926C557.911 127.229 543.416 106.367 521.676 102.389ZM539.828 145.092C539.793 145.49 539.72 145.924 539.648 146.322C537.147 160.17 523.776 169.392 509.898 166.86C498.809 164.835 490.656 155.939 489.171 145.345C488.773 142.705 488.809 139.922 489.316 137.139C491.854 123.29 505.188 114.068 519.066 116.601C532.511 119.06 541.569 131.57 539.867 144.913C539.865 144.984 539.865 145.021 539.828 145.092Z" fill="#0C3980"/>
<path d="M366.31 112.39L352.432 109.862L347.115 138.923L360.993 141.451L366.31 112.39Z" fill="#0C3980"/>
<path d="M392.742 119.55L378.864 117.021L374.834 139.044L388.712 141.573L392.742 119.55Z" fill="#0C3980"/>
<path d="M539.865 144.911C541.567 131.568 532.509 119.057 519.064 116.598C505.186 114.066 491.852 123.288 489.314 137.136C488.807 139.919 488.77 142.705 489.169 145.343C488.733 143.534 488.517 141.654 488.517 139.703C488.517 125.421 500.113 113.813 514.463 113.813C528.776 113.813 540.408 125.421 540.408 139.703C540.408 141.478 540.226 143.249 539.865 144.911Z" fill="#0A3366"/>
<path d="M515.941 101.596C485.981 100.381 476.115 127.457 476.007 127.76L477.444 127.988C477.863 126.795 487.048 101.688 515.941 103.021V101.596Z" fill="white"/>
<path d="M402.753 131.256C402.753 131.256 404.893 130.741 405.482 127.08C406.072 123.419 406.159 124.269 406.159 124.269C406.159 124.269 404.142 123.231 403.073 127.457C399.907 127.245 397.369 128.748 397.541 130.789C397.65 132.044 402.364 131.826 402.753 131.256Z" fill="#FFA599"/>
<path d="M397.848 129.702L397.541 129.509C397.603 129.41 399.066 127.147 402.935 127.268C403.548 124.872 404.704 123.743 406.203 124.092L406.12 124.444C404.453 124.056 403.64 125.892 403.25 127.498L403.216 127.643L403.066 127.636C399.321 127.459 397.861 129.679 397.848 129.702Z" fill="#FF7E59"/>
<path d="M448.251 140.186C448.251 140.186 445.096 139.136 443.848 132.579C445.877 131.141 446.674 134.944 446.674 134.944C446.674 134.944 450.1 134.744 452.447 135.808C453.689 136.371 453.986 137.054 454.681 138.805C456.471 142.578 448.251 140.186 448.251 140.186Z" fill="#FFA599"/>
<path d="M454.651 138.98C454.58 138.98 454.511 138.936 454.483 138.865C454.481 138.858 454.25 138.272 453.792 137.258C452.479 134.691 446.747 135.121 446.69 135.126L446.542 135.137L446.501 134.995C446.499 134.985 446.264 134.174 445.699 133.053C445.573 132.8 445.395 132.639 445.158 132.563C444.61 132.389 443.938 132.738 443.931 132.74C443.843 132.786 443.733 132.754 443.687 132.664C443.641 132.577 443.673 132.467 443.76 132.421C443.793 132.402 444.571 131.996 445.266 132.219C445.598 132.324 445.851 132.549 446.022 132.892C446.469 133.784 446.71 134.473 446.803 134.758C447.749 134.7 452.797 134.526 454.117 137.104C454.582 138.136 454.817 138.731 454.819 138.736C454.856 138.828 454.81 138.934 454.716 138.97C454.695 138.977 454.672 138.98 454.651 138.98Z" fill="#FF7E59"/>
<path d="M439.703 164.563C441.066 164.343 441.991 163.062 441.77 161.703C441.548 160.343 440.265 159.42 438.903 159.641C437.54 159.861 436.615 161.142 436.836 162.501C437.058 163.861 438.341 164.784 439.703 164.563Z" fill="#FFA599"/>
<path d="M397.09 278.798C397.078 278.798 397.069 278.798 397.058 278.796C396.869 278.777 396.728 278.609 396.744 278.421C399.333 250.343 408.964 219.036 409.473 217.4C409.363 216.051 407.675 195.161 407.661 189.459C407.649 184.303 417.863 175.315 418.296 174.933C418.439 174.807 418.658 174.823 418.784 174.965C418.911 175.108 418.895 175.326 418.752 175.453C418.648 175.544 408.34 184.613 408.352 189.457C408.363 195.294 410.148 217.191 410.166 217.411L410.171 217.478L410.15 217.542C410.049 217.862 400.07 249.863 397.431 278.485C397.417 278.665 397.267 278.798 397.09 278.798Z" fill="white"/>
</g>
<defs>
<clipPath id="clip0_15_641">
<rect width="584.127" height="349" fill="white" transform="translate(0.936523)"/>
</clipPath>
</defs>
</svg>
